<?xml version="1.0" standalone="no"?>
<!DOCTYPE svg PUBLIC "-//W3C//DTD SVG 20010904//EN"
 "http://www.w3.org/TR/2001/REC-SVG-20010904/DTD/svg10.dtd">
<svg version="1.0" xmlns="http://www.w3.org/2000/svg"
 width="300.000000pt" height="300.000000pt" viewBox="0 0 300.000000 300.000000"
 preserveAspectRatio="xMidYMid meet">

<g transform="translate(0.000000,300.000000) scale(0.100000,-0.100000)"
fill="#000000" stroke="none">
<path d="M1491 2195 c-115 -25 -384 -124 -586 -215 -153 -69 -206 -122 -171
-175 22 -33 58 -50 145 -68 40 -9 74 -17 75 -19 1 -2 16 -44 32 -95 l31 -91
-41 -11 c-166 -45 -444 -111 -508 -121 -86 -14 -111 -31 -85 -57 15 -15 24
-15 114 0 54 9 163 24 243 33 142 15 472 68 618 99 40 8 77 15 82 15 5 0 10
-19 12 -42 3 -38 6 -43 28 -43 23 0 25 4 28 51 l3 51 57 13 c71 15 206 63 292
102 72 32 110 63 110 88 0 14 46 30 232 79 268 73 277 76 285 97 15 39 -17 34
-293 -41 -268 -73 -285 -77 -416 -82 l-137 -6 -7 28 c-5 21 6 54 55 154 67
138 75 181 41 224 -37 47 -120 57 -239 32z m190 -64 l23 -18 -19 -49 c-20 -55
-83 -184 -89 -184 -2 0 -16 33 -31 73 -33 87 -57 117 -83 101 -14 -9 -18 -31
-22 -117 -3 -58 -8 -108 -11 -112 -7 -7 -82 108 -93 143 -10 32 -40 46 -57 26
-11 -13 -8 -31 19 -107 18 -51 32 -99 32 -108 0 -21 -39 -29 -107 -22 l-53 6
0 41 c0 23 -9 55 -20 74 -25 41 -65 43 -141 5 -41 -22 -56 -36 -64 -60 -6 -18
-13 -35 -16 -38 -8 -8 -108 14 -141 31 -17 9 -25 20 -22 29 17 44 528 253 729
298 11 3 48 5 81 6 47 1 67 -4 85 -18z m-130 -348 c-6 -13 -19 -23 -30 -23
-18 0 -19 5 -14 58 7 87 13 93 35 37 15 -38 17 -54 9 -72z m-417 42 c4 -14 2
-34 -4 -45 -10 -18 -17 -20 -63 -14 -29 4 -54 8 -55 10 -12 9 15 48 41 59 50
22 74 19 81 -10z m-87 -121 c-3 -3 -12 -4 -19 -1 -8 3 -5 6 6 6 11 1 17 -2 13
-5z m331 -38 c4 -31 -12 -56 -27 -40 -4 5 -11 24 -15 42 -5 30 -4 33 17 30 16
-2 23 -11 25 -32z m132 25 c0 -16 -30 -41 -50 -41 -16 0 -30 18 -30 41 0 5 18
9 40 9 22 0 40 -4 40 -9z m95 -1 c-3 -5 -13 -10 -21 -10 -8 0 -14 5 -14 10 0
6 9 10 21 10 11 0 17 -4 14 -10z m270 1 c-25 -22 -304 -121 -342 -121 -14 0
-14 3 -1 22 11 17 50 31 174 64 178 47 182 48 169 35z m-601 -23 c23 -33 20
-57 -9 -68 -38 -15 -187 -52 -191 -47 -2 1 -10 20 -19 40 l-15 36 32 17 c91
47 178 57 202 22z m196 -85 c-1 -21 -20 -32 -75 -43 -33 -6 -68 -14 -77 -16
-10 -3 -18 0 -18 6 0 15 62 40 99 40 16 0 33 5 36 10 7 12 35 14 35 3z"/>
</g>
</svg>
